<svg xmlns="http://www.w3.org/2000/svg" xmlns:xlink="http://www.w3.org/1999/xlink" xmlns:lucid="lucid" width="1284.33" height="1042"><g transform="translate(183.32716049382717 141)" lucid:page-tab-id="0_0"><path d="M-500-500h2000v1500H-500z" fill="#fff"/><path d="M-160-114a6 6 0 0 1 6-6h1228a6 6 0 0 1 6 6v988a6 6 0 0 1-6 6H-154a6 6 0 0 1-6-6z" stroke="#232f3e" stroke-width="2" fill="#fff" fill-opacity="0"/><path d="M-160-120h56v56h-56v-56z" stroke="#fff" stroke-opacity="0" fill="#232f3e"/><path d="M-141.78-94.13c-.04.48.04.87.17 1.34.1.4.28.7.48 1.08.04.1.08.2.08.33 0 .2-.12.36-.28.46l-.95.62c-.12.08-.24.13-.37.13-.16 0-.33-.06-.45-.2-.2-.2-.36-.43-.52-.7-.17-.25-.3-.53-.45-.86-1.1 1.37-2.63 2.1-4.4 2.06-1.15.06-2.13-.3-2.96-1.08-.78-.8-1.14-1.76-1.1-2.85-.04-1.23.4-2.28 1.35-3.08 1.07-.85 2.3-1.23 3.66-1.16.57 0 1.02.02 1.6.1.57.1 1.1.2 1.72.33v-1.1c.08-.88-.16-1.67-.7-2.37-.74-.56-1.56-.8-2.46-.7-.53 0-1.03.07-1.6.2-.58.13-1.03.3-1.6.5l-.5.2h-.24c-.2 0-.33-.16-.33-.45v-.75c0-.18.04-.34.12-.5.12-.16.24-.26.4-.33.66-.3 1.2-.5 1.9-.67.77-.2 1.47-.3 2.3-.28 1.47-.13 2.78.26 3.9 1.2.94 1.05 1.35 2.28 1.22 3.67zm-6.07 2.28c.57 0 1.06-.1 1.6-.28.57-.2 1.03-.5 1.44-.96.23-.27.4-.57.48-.93.12-.45.16-.84.16-1.3V-96c-.53-.1-.94-.17-1.44-.2h-1.4c-.8-.08-1.55.12-2.2.58-.54.45-.8 1.04-.75 1.73-.04.62.13 1.16.54 1.6.44.38.97.52 1.55.45zm12 1.6c-.22.02-.42-.03-.6-.15-.15-.17-.23-.36-.32-.6l-3.5-11.5-.1-.62c0-.24.1-.37.36-.37h1.47c.2 0 .37.04.57.15.17.18.25.37.3.6l2.5 9.96 2.38-9.93c0-.24.08-.44.28-.6.17-.12.37-.16.58-.14h1.2c.24-.02.4.02.6.14.17.18.25.36.3.6l2.33 9.94 2.56-10c.04-.2.16-.4.33-.58.15-.1.36-.17.56-.14h1.4c.16 0 .33.1.37.3v.31s0 .2-.12.35l-3.6 11.53c-.05.22-.13.42-.3.6-.2.1-.37.14-.57.13h-1.27c-.25.04-.46-.02-.62-.15-.16-.16-.25-.36-.3-.6l-2.3-9.6-2.28 9.6c-.05.24-.13.44-.3.6-.2.13-.4.2-.6.16zm19.2.38c-.82 0-1.52-.07-2.3-.25-.65-.13-1.14-.3-1.72-.6-.2-.1-.37-.23-.45-.42-.08-.14-.12-.28-.12-.43v-.75c0-.3.12-.46.32-.46h.3l.36.16c.58.23 1.03.4 1.6.5.62.14 1.15.2 1.8.2.8.05 1.5-.1 2.2-.5.48-.3.77-.8.72-1.4.05-.4-.12-.76-.37-1.04-.46-.4-.95-.65-1.52-.8l-2.18-.67c-.94-.26-1.72-.74-2.38-1.5-.5-.66-.74-1.36-.74-2.2 0-.58.12-1.07.4-1.6.3-.5.63-.88 1.08-1.2.5-.4.98-.62 1.6-.8.66-.17 1.2-.25 1.9-.24.32-.03.6-.03.97 0l1 .16.8.23.67.25c.16.1.28.22.45.38.08.15.12.3.12.5v.7c0 .3-.12.47-.37.47-.2-.03-.37-.08-.57-.18-.95-.43-1.8-.6-2.88-.58-.7-.04-1.3.1-1.97.4-.5.3-.74.8-.7 1.36 0 .4.13.76.45 1.05.5.4 1 .65 1.6.82l2.1.67c.94.24 1.7.7 2.3 1.44.5.64.7 1.3.7 2.1 0 .63-.13 1.17-.37 1.73-.3.55-.62.95-1.1 1.32-.5.4-1 .66-1.6.84-.75.23-1.4.33-2.15.34zM-113.9-82.52c-5.6 3.82-11.36 5.58-18.15 5.56-8.54.05-15.82-2.74-22.16-8.45-.5-.42 0-1 .48-.68 7.07 4.05 14.03 5.9 22.2 5.9 6.1-.04 11.3-1.1 16.93-3.47.83-.35 1.52.55.7 1.14z" stroke="#fff" stroke-opacity="0" fill="#fff"/><path d="M-111.84-84.8c-.64-.8-4.16-.38-5.75-.2-.46 0-.53-.36-.1-.67 2.8-1.97 7.42-1.4 8-.73.6.67-.14 5.28-2.78 7.48-.4.34-.78.15-.6-.28.54-1.52 1.86-4.83 1.24-5.6z" stroke="#fff" stroke-opacity="0" fill="#fff"/><use xlink:href="#a" transform="matrix(1,0,0,1,-89,-100) translate(0 14.4)"/><use xlink:href="#b" transform="matrix(1,0,0,1,-89,-100) translate(45.3 14.4)"/><path d="M160 66a6 6 0 0 1 6-6h308a6 6 0 0 1 6 6v268a6 6 0 0 1-6 6H166a6 6 0 0 1-6-6z" fill="#248814" fill-opacity=".13"/><path d="M160 60h56v56h-56V60z" stroke="#fff" stroke-opacity="0" fill="#248814"/><path d="M203.38 82.18c-.15-.17-.34-.25-.56-.25h-5.15v-5.58c-.03-2.54-.96-4.7-2.84-6.4-1.9-1.84-4.15-2.75-6.77-2.75-2.65 0-4.9.83-6.8 2.62-1.9 1.7-2.87 3.87-2.9 6.4v5.67l-5.15-.02c-.24 0-.43.1-.58.25-.16.17-.22.34-.22.6V108c0 .43.34.8.8.8h29.6c.46 0 .8-.37.8-.8V82.73c0-.2-.06-.38-.22-.54zm-23.46-5.9c.03-2.13.8-3.88 2.37-5.3 1.6-1.5 3.52-2.2 5.73-2.2 2.22 0 4.12.75 5.7 2.25 1.54 1.4 2.32 3.2 2.32 5.32v5.58H179.9zm22.1 30.94h-28.03v-23.7h28z" stroke="#fff" stroke-opacity="0" fill="#fff"/><path d="M187.2 97.3v6.25h1.6v-6.23c2.13-.4 3.62-2.2 3.63-4.35 0-2.43-1.97-4.4-4.4-4.43-2.2-.03-4.06 1.5-4.44 3.68-.42 2.4 1.2 4.68 3.6 5.1zm.82-7.15c.78 0 1.44.27 2 .82.54.56.82 1.22.8 2 .03 1.55-1.2 2.8-2.74 2.82h-.06c-1.56.1-2.92-1.06-3.04-2.62-.1-1.56 1.05-2.93 2.6-3.03.16-.02.28-.02.44 0z" stroke="#fff" stroke-opacity="0" fill="#fff"/><use xlink:href="#c" transform="matrix(1,0,0,1,231,80) translate(0 14.4)"/><use xlink:href="#d" transform="matrix(1,0,0,1,231,80) translate(53.900000000000006 14.4)"/><path d="M160 466a6 6 0 0 1 6-6h308a6 6 0 0 1 6 6v268a6 6 0 0 1-6 6H166a6 6 0 0 1-6-6z" fill="#248814" fill-opacity=".13"/><path d="M160 460h56v56h-56v-56z" stroke="#fff" stroke-opacity="0" fill="#248814"/><path d="M203.38 482.18c-.15-.17-.34-.25-.56-.25h-5.15v-5.58c-.03-2.54-.96-4.7-2.84-6.4-1.9-1.83-4.15-2.75-6.77-2.75-2.65 0-4.9.83-6.8 2.62-1.9 1.7-2.87 3.87-2.9 6.4v5.66h-5.15c-.24 0-.43.1-.58.25-.16.17-.22.34-.22.6V508c0 .43.34.8.8.8h29.6c.46 0 .8-.37.8-.8v-25.28c0-.2-.06-.38-.22-.54zm-23.46-5.9c.03-2.13.8-3.88 2.37-5.3 1.6-1.5 3.52-2.2 5.73-2.2 2.22 0 4.12.75 5.7 2.25 1.54 1.4 2.32 3.2 2.32 5.32v5.58H179.9zm22.1 30.94h-28.03v-23.7h28z" stroke="#fff" stroke-opacity="0" fill="#fff"/><path d="M187.2 497.3v6.25h1.6v-6.23c2.13-.4 3.62-2.2 3.63-4.35 0-2.43-1.97-4.4-4.4-4.43-2.2-.03-4.06 1.5-4.44 3.68-.42 2.4 1.2 4.68 3.6 5.1zm.82-7.15c.78 0 1.44.27 2 .83.54.55.82 1.2.8 2 .03 1.54-1.2 2.8-2.74 2.8h-.06c-1.56.13-2.92-1.04-3.04-2.6-.1-1.56 1.05-2.93 2.6-3.03.16-.02.28-.02.44 0z" stroke="#fff" stroke-opacity="0" fill="#fff"/><use xlink:href="#c" transform="matrix(1,0,0,1,231,480) translate(0 14.4)"/><use xlink:href="#d" transform="matrix(1,0,0,1,231,480) translate(53.900000000000006 14.4)"/><path d="M600 66a6 6 0 0 1 6-6h308a6 6 0 0 1 6 6v268a6 6 0 0 1-6 6H606a6 6 0 0 1-6-6z" fill="#147eba" fill-opacity=".13"/><path d="M600 60h56v56h-56V60z" stroke="#fff" stroke-opacity="0" fill="#147eba"/><path d="M643.38 82.18c-.15-.17-.34-.25-.56-.25h-5.15v-5.58c-.03-2.54-.96-4.7-2.84-6.4-1.9-1.84-4.15-2.75-6.77-2.75-2.65 0-4.9.83-6.8 2.62-1.9 1.7-2.87 3.87-2.9 6.4v5.67l-5.15-.02c-.24 0-.43.1-.58.25-.16.17-.22.34-.22.6V108c0 .43.34.8.8.8h29.6c.46 0 .8-.37.8-.8V82.73c0-.2-.06-.38-.22-.54zm-23.46-5.9c.03-2.13.8-3.88 2.37-5.3 1.6-1.5 3.52-2.2 5.73-2.2 2.22 0 4.12.75 5.7 2.25 1.54 1.4 2.32 3.2 2.32 5.32v5.58H619.9zm22.1 30.94h-28.03v-23.7h28z" stroke="#fff" stroke-opacity="0" fill="#fff"/><path d="M627.2 97.3v6.25h1.6v-6.23c2.13-.4 3.62-2.2 3.63-4.35 0-2.43-1.97-4.4-4.4-4.43-2.2-.03-4.06 1.5-4.44 3.68-.42 2.4 1.2 4.68 3.6 5.1zm.82-7.15c.78 0 1.44.27 2 .82.54.56.82 1.22.8 2 .03 1.55-1.2 2.8-2.74 2.82h-.06c-1.56.1-2.92-1.06-3.04-2.62-.12-1.56 1.05-2.93 2.6-3.03.16-.02.28-.02.44 0z" stroke="#fff" stroke-opacity="0" fill="#fff"/><use xlink:href="#e" transform="matrix(1,0,0,1,671,80) translate(0 14.4)"/><use xlink:href="#f" transform="matrix(1,0,0,1,671,80) translate(60.9 14.4)"/><path d="M600 466a6 6 0 0 1 6-6h308a6 6 0 0 1 6 6v268a6 6 0 0 1-6 6H606a6 6 0 0 1-6-6z" fill="#147eba" fill-opacity=".13"/><path d="M600 460h56v56h-56v-56z" stroke="#fff" stroke-opacity="0" fill="#147eba"/><path d="M643.38 482.18c-.15-.17-.34-.25-.56-.25h-5.15v-5.58c-.03-2.54-.96-4.7-2.84-6.4-1.9-1.83-4.15-2.75-6.77-2.75-2.65 0-4.9.83-6.8 2.62-1.9 1.7-2.87 3.87-2.9 6.4v5.66h-5.15c-.24 0-.43.1-.58.25-.16.17-.22.34-.22.6V508c0 .43.34.8.8.8h29.6c.46 0 .8-.37.8-.8v-25.28c0-.2-.06-.38-.22-.54zm-23.46-5.9c.03-2.13.8-3.88 2.37-5.3 1.6-1.5 3.52-2.2 5.73-2.2 2.22 0 4.12.75 5.7 2.25 1.54 1.4 2.32 3.2 2.32 5.32v5.58H619.9zm22.1 30.94h-28.03v-23.7h28z" stroke="#fff" stroke-opacity="0" fill="#fff"/><path d="M627.2 497.3v6.25h1.6v-6.23c2.13-.4 3.62-2.2 3.63-4.35 0-2.43-1.97-4.4-4.4-4.43-2.2-.03-4.06 1.5-4.44 3.68-.42 2.4 1.2 4.68 3.6 5.1zm.82-7.15c.78 0 1.44.27 2 .83.54.55.82 1.2.8 2 .03 1.54-1.2 2.8-2.74 2.8h-.06c-1.56.13-2.92-1.04-3.04-2.6-.12-1.56 1.05-2.93 2.6-3.03.16-.02.28-.02.44 0z" stroke="#fff" stroke-opacity="0" fill="#fff"/><use xlink:href="#e" transform="matrix(1,0,0,1,671,480) translate(0 14.4)"/><use xlink:href="#f" transform="matrix(1,0,0,1,671,480) translate(60.9 14.4)"/><path d="M560-14a6 6 0 0 1 6-6h388a6 6 0 0 1 6 6v768a6 6 0 0 1-6 6H566a6 6 0 0 1-6-6z" fill="#fff" fill-opacity="0"/><path d="M578.13-20h8.08m8.1 0h8.08m8.08 0h8.08m8.1 0h8.07m8.1 0h8.08m8.08 0h8.08m8.1 0h8.07m8.1 0h8.08m8.08 0h8.08m8.1 0h8.07m8.1 0h8.08m8.08 0h8.08m8.1 0h8.07m8.1 0h8.08m8.08 0h8.08m8.1 0h8.07m8.1 0h8.08m8.08 0h8.08m8.1 0h8.07m8.1 0h8.08m8.08 0h8.08m8.1 0h8.07m8.1 0h8.08m8.08 0H954l.94.07.9.22.88.35.8.5.72.6.6.72.5.8.37.88.23.9.07.95v4m0 8v8m0 8v8m0 8v8m0 8v8m0 8v8m0 8v8m0 8v8m0 8v8m0 8v8m0 8v8m0 8v8m0 8v8m0 8v8m0 8v8m0 8v8m0 8v8m0 8v8m0 8v8m0 8v8m0 8v8m0 8v8m0 8v8m0 8v8m0 8v8m0 8v8m0 8v8m0 8v8m0 8v8m0 8v8m0 8v8m0 8v8m0 8v8m0 8v8m0 8v8m0 8v8m0 8v8m0 8v8m0 8v8m0 8v8m0 8v8m0 8v8m0 8v8m0 8v8m0 8v8m0 8v8m0 8v8m0 8v8m0 8v4l-.07.94-.22.9-.35.88-.5.8-.6.72-.72.6-.8.5-.88.37-.9.23-.95.07h-4.04m-8.1 0h-8.07m-8.1 0h-8.08m-8.08 0h-8.08m-8.1 0h-8.07m-8.1 0h-8.08m-8.08 0h-8.08m-8.1 0h-8.07m-8.1 0h-8.08m-8.08 0h-8.08m-8.1 0h-8.07m-8.1 0h-8.08m-8.08 0h-8.08m-8.1 0h-8.07m-8.1 0h-8.08m-8.08 0h-8.08m-8.1 0h-8.07m-8.1 0h-8.08m-8.08 0h-8.08m-8.1 0h-8.07m-8.1 0h-8.08m-8.08 0h-8.08m-8.1 0h-8.07m-8.1 0h-8.08m-8.08 0H566l-.94-.07-.9-.22-.88-.35-.8-.5-.72-.6-.6-.72-.5-.8-.37-.88-.23-.9-.07-.95v-4m0-8v-8m0-8v-8m0-8v-8m0-8v-8m0-8v-8m0-8v-8m0-8v-8m0-8v-8m0-8v-8m0-8v-8m0-8v-8m0-8v-8m0-8v-8m0-8v-8m0-8v-8m0-8v-8m0-8v-8m0-8v-8m0-8v-8m0-8v-8m0-8v-8m0-8v-8m0-8v-8m0-8v-8m0-8v-8m0-8v-8m0-8v-8m0-8v-8m0-8v-8m0-8v-8m0-8v-8m0-8v-8m0-8v-8m0-8v-8m0-8v-8m0-8v-8m0-8v-8m0-8v-8m0-8v-8m0-8v-8m0-8v-8m0-8v-8m0-8v-8m0-8v-8m0-8v-8m0-8v-8m0-8v-8m0-8v-4l.07-.94.22-.9.35-.88.5-.8.6-.72.72-.6.8-.5.88-.37.9-.23.95-.07h4.04" stroke="#d86613" stroke-width="2" fill="none"/><path d="M560-20h56v56h-56v-56z" stroke="#fff" stroke-opacity="0" stroke-width="2" fill="#d86613"/><path d="M578.5 7.18c.07.06.1.13.2.17.1.1.2.2.33.27l.1.06.36.2.22.1h.18l.18.08c.35.12.73.27 1.17.4l.7.2.34.1c1.96.48 3.67.7 5.7.67 3.07.06 5.7-.44 8.5-1.62 1.22-.56 1.93-1.66 1.95-3V-5.9c0-.47-.25-.86-.67-1.07l-9.28-4.32c-.3-.15-.67-.15-.98 0l-9.3 4.33c-.42.2-.67.6-.67 1.06V4.84c0 .83.27 1.54.8 2.2.05.05.1.1.16.13zm3.8.1l-.6-.18-1.06-.36-.27-.12-.25-.1c-.1-.05-.17-.1-.25-.13l-.2-.16-.07-.1-.07-.06-.06-.07c-.3-.34-.44-.72-.44-1.17V-5l8.22 3.84v9.13c-1.63-.02-3-.2-4.6-.58zm13.6-.8c-2.38 1.03-4.58 1.5-7.17 1.5v-9l8.22-3.74V4.8c.02.75-.38 1.38-1.05 1.7zM588-9.88l8.26 3.87-8.13 3.64-.05-.03-8.03-3.73z" stroke="#fff" stroke-opacity="0" stroke-width="2" fill="#fff"/><path d="M600.9.67l-.4 1.43c3.34 1 5.44 2.4 5.44 3.66 0 2.47-7.38 5.23-17.94 5.23-10.56 0-17.94-2.77-17.94-5.24 0-1.26 2.1-2.67 5.44-3.66l-.4-1.43c-4.18 1.23-6.5 3.04-6.5 5.1 0 4.35 10 6.7 19.4 6.7 9.4 0 19.4-2.35 19.4-6.7 0-2.05-2.32-3.86-6.5-5.1zM600.85 14.83l-3.47-1.5c-.28-.13-.56-.13-.84 0L593 14.86c-.34.17-.5.46-.5.82v3.85l-3.34-1.45c-.28-.14-.55-.14-.83 0l-3.35 1.45v-3.87c0-.36-.2-.7-.53-.83l-3.5-1.5c-.26-.13-.56-.13-.84 0l-3.54 1.53c-.33.17-.5.46-.5.82v4.54c0 .38.2.7.55.85l3.5 1.5h.06c.13.04.23.07.38.07.13 0 .25 0 .36-.08l3.37-1.45v3.86c0 .37.2.68.53.84l3.48 1.5h.05c.12.05.25.08.4.08.13 0 .25-.02.38-.08l3.56-1.53c.33-.17.5-.47.54-.84V21.1l3.3 1.46h.1c.12.05.25.08.4.1.13-.02.23-.05.33-.1l3.57-1.5c.33-.14.5-.46.5-.8v-4.6c0-.36-.2-.7-.55-.83zm-3.9-.07l2.03.88-1.9.77-1.98-.83zm-8.22 4.77l2.03.86-1.9.74-1.98-.82zm-8.2-4.77l2 .88-1.9.75-1.97-.83zm-3 1.95l2.25.96v3.14l-2.26-.96zm3.75 4.1v-3l2.23-.92v3zm4.46.67l2.26.96v3.1l-2.26-.95zm3.73 4.1v-3l2.25-.93v2.98zm4.5-8.86l2.22.96v3.14l-2.25-.96zm3.7 4.1v-2.98l2.27-.94v3z" stroke="#fff" stroke-opacity="0" stroke-width="2" fill="#fff"/><use xlink:href="#g" transform="matrix(1,0,0,1,631,0) translate(0 14.4)"/><use xlink:href="#h" transform="matrix(1,0,0,1,631,0) translate(41.95 14.4)"/><use xlink:href="#i" transform="matrix(1,0,0,1,631,0) translate(108.85000000000001 14.4)"/><path d="M-40-34a6 6 0 0 1 6-6h1068a6 6 0 0 1 6 6v868a6 6 0 0 1-6 6H-34a6 6 0 0 1-6-6z" stroke="#248814" stroke-width="2" fill="#fff" fill-opacity="0"/><path d="M-40-40h56v56h-56v-56z" stroke="#fff" stroke-opacity="0" fill="#248814"/><path d="M-8.24-11.7h-1.18v-1.1c-.12-1.73-1.47-3.07-3.2-3.2-1.9-.13-3.54 1.3-3.67 3.2v1.07h-1.17c-.45 0-.8.36-.8.8v6.13c0 .44.36.8.8.8h9.23c.44 0 .8-.36.8-.8v-6.1c0-.44-.36-.8-.8-.8zm-6.4-1.06c.1-1.03 1-1.77 2-1.67.9.08 1.58.77 1.67 1.67v1.06h-3.72zM-9-5.68h-7.67v-4.42h7.63z" stroke="#fff" stroke-opacity="0" fill="#fff"/><path d="M2.27-14.26C2.2-16.7.7-18.73-1.6-19.55c-1.58-.46-3.16-.13-4.4.9-.68-1.44-1.47-2.6-2.6-3.75-3.24-3.36-7.94-4.3-12.18-2.4-4.04 1.9-6.4 5.63-6.54 10.05v.7c-3.4.98-5.66 4.08-5.5 7.65v.63c.38 4.28 3.92 7.52 8.2 7.47h26S8.8 1.06 8.8-6.4c.04-3.9-2.66-7.2-6.53-7.86zM1.3.14h-25.9c-3.47.05-6.3-2.53-6.6-5.97v-.52c-.15-3.05 1.93-5.7 4.92-6.3.38-.12.63-.48.6-.9-.06-.4-.06-.73 0-1.14.07-3.78 2.1-6.94 5.52-8.6 1.25-.56 2.4-.8 3.83-.84 2.62.08 4.87 1.04 6.7 2.94 1.25 1.3 2.04 2.6 2.62 4.3.03.15.1.28.24.37.37.27.87.2 1.12-.17.83-1.18 2.25-1.67 3.62-1.3 1.8.72 2.87 2.4 2.83 4.32-.07.4.22.82.64.9 3.57.36 6.2 3.55 5.82 7.12C6.96-2.53 4.56-.14 1.44.2z" stroke="#fff" stroke-opacity="0" fill="#fff"/><use xlink:href="#j" transform="matrix(1,0,0,1,31,-20) translate(0 14.4)"/><use xlink:href="#k" transform="matrix(1,0,0,1,31,-20) translate(55.5 14.4)"/><use xlink:href="#l" transform="matrix(1,0,0,1,31,-20) translate(116.4 14.4)"/><path d="M720 171.88h80v39.87h-80v-39.87z" fill="#9d5025"/><path d="M720 168.25h80v39.87h-80v-39.87z" fill="#f58536"/><path d="M737.28 170.63h3.77v35.12h-3.77v-35.12zM744.22 170.63H748v35.12h-3.78v-35.12zM751.17 170.63h3.77v35.12h-3.77v-35.12zM723.4 170.63h3.76v35.12h-3.77v-35.12zM730.34 170.63h3.76v35.12h-3.76v-35.12zM758.1 170.63h3.78v35.12h-3.77v-35.12zM765.06 170.63h3.76v35.12h-3.76v-35.12zM772 170.63h3.77v35.12H772v-35.12zM778.94 170.63h3.76v35.12h-3.76v-35.12zM785.88 170.63h3.77v35.12h-3.77v-35.12zM792.82 170.63h3.77v35.12h-3.78v-35.12z" fill="#fbbf93"/><path d="M724.38 171.58h2.8v34.17h-2.8v-34.17zM731.32 171.58h2.8v34.17h-2.8v-34.17zM738.26 171.58h2.8v34.17h-2.8v-34.17zM745.2 171.58h2.8v34.17h-2.8v-34.17zM752.14 171.58h2.8v34.17h-2.8v-34.17zM759.1 171.58h2.78v34.17h-2.8v-34.17zM766.03 171.58h2.8v34.17h-2.8v-34.17zM772.98 171.58h2.8v34.17h-2.8v-34.17zM779.92 171.58h2.8v34.17h-2.8v-34.17zM786.86 171.58h2.8v34.17h-2.8v-34.17zM793.8 171.58h2.8v34.17h-2.8v-34.17z" fill="#fff"/><use xlink:href="#m" transform="matrix(1,0,0,1,720,211.75) translate(17.19135802469136 17.77777777777778)"/><use xlink:href="#n" transform="matrix(1,0,0,1,720,211.75) translate(19.62962962962963 44.44444444444444)"/><path d="M-120 440c-22.08 0-40-17.92-40-40s17.92-40 40-40 40 17.92 40 40-17.92 40-40 40zm0-76.56c-20.24 0-36.56 16.32-36.56 36.56 0 20.24 16.32 36.56 36.56 36.56 20.24 0 36.56-16.32 36.56-36.56 0-20.24-16.32-36.56-36.56-36.56z" stroke="#fff" stroke-opacity="0" fill="#693cc5"/><path d="M-100.86 424.03h-6.38c-.96 0-1.7-.75-1.7-1.7v-33c-3.47-1.8-6.77-2.6-10.64-2.7-4.26.1-7.8 1.04-11.55 3.07v32.63c0 .95-.75 1.7-1.67 1.7h-6.34c-.96 0-1.7-.75-1.7-1.7V385.2c0-.5.2-.93.57-1.26 6.1-5 12.85-7.32 20.7-7.13 7.4-.14 13.8 1.94 19.75 6.33.46.33.67.8.67 1.33v37.87c0 .95-.75 1.7-1.7 1.7zm-4.67-3.4h2.96V385.3c-5.2-3.58-10.67-5.2-17-5.1-6.73-.18-12.52 1.7-17.86 5.77v34.66h2.92V388.6c0-.65.32-1.22.9-1.5 4.5-2.55 8.85-3.78 14.02-3.87 4.7.14 8.7 1.18 12.88 3.4h.17c.63.28 1 .85 1 1.56z" stroke="#fff" stroke-opacity="0" fill="#693cc5"/><use xlink:href="#o" transform="matrix(1,0,0,1,-190,449) translate(32.376543209876544 17.77777777777778)"/><use xlink:href="#p" transform="matrix(1,0,0,1,-190,449) translate(28.672839506172842 44.44444444444444)"/><path d="M60 360c-22.08 0-40 17.92-40 40s17.92 40 40 40 40-17.92 40-40-17.92-40-40-40zm0 76.8c-20.32 0-36.8-16.48-36.8-36.8 0-20.32 16.48-36.8 36.8-36.8 20.32 0 36.8 16.48 36.8 36.8 0 20.32-16.48 36.8-36.8 36.8z" stroke="#fff" stroke-opacity="0" stroke-width="3" fill="#693cc5"/><path d="M45.6 409.6h-16c-.9 0-1.6-.7-1.6-1.6v-16c0-.9.7-1.6 1.6-1.6h16c.9 0 1.6.7 1.6 1.6v16c0 .9-.7 1.6-1.6 1.6zm-14.4-3.2H44v-12.8H31.2zM82.4 388.8h-9.6c-.88 0-1.6-.72-1.6-1.6v-9.6c0-.88.72-1.6 1.6-1.6h9.6c.88 0 1.6.72 1.6 1.6v9.6c0 .88-.72 1.6-1.6 1.6zm-8-3.2h6.4v-6.4h-6.4zM82.4 406.4h-9.6c-.88 0-1.6-.72-1.6-1.6v-9.6c0-.88.72-1.6 1.6-1.6h9.6c.88 0 1.6.72 1.6 1.6v9.6c0 .88-.72 1.6-1.6 1.6zm-8-3.2h6.4v-6.4h-6.4zM82.4 424h-9.6c-.88 0-1.6-.72-1.6-1.6v-9.6c0-.88.72-1.6 1.6-1.6h9.6c.88 0 1.6.72 1.6 1.6v9.6c0 .88-.72 1.6-1.6 1.6zm-8-3.2h6.4v-6.4h-6.4zM69.13 401.13l-5.38 5.38-2.27-2.24 2.66-2.66H50.4v-3.2h13.74l-2.66-2.66 2.27-2.25 5.38 5.37c.63.62.63 1.63.02 2.26h-.02zM68.25 383.22l-1.98 7.35-3.06-.84 1.02-3.8-14.2 7.48-1.48-2.8 13.86-7.32-3.45-.88.83-3.2 7.36 2c.86.2 1.37 1.08 1.13 1.94 0 .02 0 .05-.02.08zM67.14 418.76l-7.34 2.04-.86-3.2 3.45-.94-13.87-7.32 1.48-2.8L64.2 414l-1-3.75 3.1-.83 1.97 7.35c.24.83-.28 1.72-1.13 1.94v.02z" stroke="#fff" stroke-opacity="0" stroke-width="3" fill="#693cc5"/><use xlink:href="#q" transform="matrix(1,0,0,1,-10,449) translate(1.5740740740740762 17.77777777777778)"/><use xlink:href="#r" transform="matrix(1,0,0,1,-10,449) translate(89.0432098765432 17.77777777777778)"/><use xlink:href="#s" transform="matrix(1,0,0,1,-10,449) translate(26.234567901234563 44.44444444444444)"/><path d="M320 640c-22.08 0-40-17.92-40-40s17.92-40 40-40 40 17.92 40 40-17.92 40-40 40zm0-76.56c-20.24 0-36.56 16.32-36.56 36.56 0 20.24 16.32 36.56 36.56 36.56 20.24 0 36.56-16.32 36.56-36.56 0-20.24-16.32-36.56-36.56-36.56z" stroke="#fff" stroke-opacity="0" fill="#693cc5"/><path d="M324.8 622.45h-14.04v-3.42h12.33v-34.86h-12.34v-3.42h14.03c.93 0 1.7.75 1.7 1.7v38.3c0 .95-.77 1.7-1.7 1.7z" stroke="#fff" stroke-opacity="0" fill="#693cc5"/><path d="M310.42 599.9h30.3v3.4h-30.3v-3.4zM299.25 590.54c-.27 0-.5-.05-.73-.18-.6-.28-.97-.86-.97-1.52v-12.76c0-.68.36-1.25.97-1.54.6-.3 1.27-.23 1.8.2l7.97 6.38c.4.34.64.8.64 1.33s-.23 1-.65 1.32l-7.97 6.4c-.32.25-.67.37-1.08.37zm1.7-10.94v5.7l3.56-2.85zM299.25 609.68c-.27 0-.5-.04-.73-.17-.6-.27-.97-.85-.97-1.5V595.2c0-.68.36-1.24.97-1.53.6-.3 1.27-.24 1.8.18l7.97 6.4c.4.33.64.78.64 1.32 0 .53-.23 1-.65 1.32l-7.97 6.4c-.32.25-.67.36-1.08.36zm1.7-10.93v5.7l3.56-2.85z" stroke="#fff" stroke-opacity="0" fill="#693cc5"/><path d="M342.33 611.27c-.23 0-.43-.04-.64-.12-.67-.27-1.07-.87-1.07-1.6v-15.94c0-.92.75-1.7 1.7-1.7.46 0 .87.18 1.22.5l7.98 8c.65.66.65 1.73 0 2.4l-7.98 7.98c-.35.33-.75.5-1.22.5zm1.7-13.6v7.73l3.9-3.87zM299.26 627.23c-.28 0-.5-.04-.74-.17-.6-.28-.97-.86-.97-1.52v-12.77c0-.95.75-1.7 1.7-1.7.4 0 .76.12 1.07.38l7.97 6.37c.72.58.84 1.67.25 2.4-.08.1-.16.17-.26.25l-7.98 6.4c-.3.25-.67.36-1.06.36zm1.7-10.93v5.7l3.55-2.85z" stroke="#fff" stroke-opacity="0" fill="#693cc5"/><use xlink:href="#t" transform="matrix(1,0,0,1,250,649) translate(4.475308641975317 17.77777777777778)"/><use xlink:href="#p" transform="matrix(1,0,0,1,250,649) translate(52.87037037037038 17.77777777777778)"/><path d="M320 240c-22.08 0-40-17.92-40-40s17.92-40 40-40 40 17.92 40 40-17.92 40-40 40zm0-76.56c-20.24 0-36.56 16.32-36.56 36.56 0 20.24 16.32 36.56 36.56 36.56 20.24 0 36.56-16.32 36.56-36.56 0-20.24-16.32-36.56-36.56-36.56z" stroke="#fff" stroke-opacity="0" fill="#693cc5"/><path d="M324.8 222.45h-14.04v-3.42h12.33v-34.86h-12.34v-3.42h14.03c.93 0 1.7.75 1.7 1.7v38.3c0 .95-.77 1.7-1.7 1.7z" stroke="#fff" stroke-opacity="0" fill="#693cc5"/><path d="M310.42 199.9h30.3v3.4h-30.3v-3.4zM299.25 190.54c-.27 0-.5-.05-.73-.18-.6-.28-.97-.86-.97-1.52v-12.77c0-.67.36-1.24.97-1.53.6-.3 1.27-.23 1.8.2l7.97 6.38c.4.34.64.8.64 1.33s-.23 1-.65 1.33l-7.97 6.38c-.32.26-.67.38-1.08.38zm1.7-10.94v5.7l3.56-2.85zM299.25 209.7c-.27 0-.5-.06-.73-.2-.6-.27-.97-.85-.97-1.5V195.2c0-.68.36-1.24.97-1.53.6-.3 1.27-.24 1.8.18l7.97 6.4c.4.33.64.78.64 1.32 0 .53-.23 1-.65 1.32l-7.97 6.4c-.32.25-.67.37-1.08.37zm1.7-10.95v5.7l3.56-2.85z" stroke="#fff" stroke-opacity="0" fill="#693cc5"/><path d="M342.33 211.27c-.23 0-.43-.04-.64-.12-.67-.27-1.07-.87-1.07-1.6v-15.94c0-.92.75-1.7 1.7-1.7.46 0 .87.18 1.22.5l7.98 8c.65.66.65 1.73 0 2.4l-7.98 7.98c-.35.33-.75.5-1.22.5zm1.7-13.6v7.73l3.9-3.87zM299.26 227.23c-.28 0-.5-.04-.74-.17-.6-.28-.97-.86-.97-1.52v-12.77c0-.95.75-1.7 1.7-1.7.4 0 .76.12 1.07.38l7.97 6.37c.72.58.84 1.67.25 2.4-.08.1-.16.17-.26.25l-7.98 6.4c-.3.25-.67.36-1.06.36zm1.7-10.93v5.7l3.55-2.85z" stroke="#fff" stroke-opacity="0" fill="#693cc5"/><use xlink:href="#t" transform="matrix(1,0,0,1,250,249) translate(4.475308641975317 17.77777777777778)"/><use xlink:href="#p" transform="matrix(1,0,0,1,250,249) translate(52.87037037037038 17.77777777777778)"/><path d="M720 571.88h80v39.87h-80v-39.87z" fill="#9d5025"/><path d="M720 568.25h80v39.87h-80v-39.87z" fill="#f58536"/><path d="M737.28 570.63h3.77v35.12h-3.77v-35.12zM744.22 570.63H748v35.12h-3.78v-35.12zM751.17 570.63h3.77v35.12h-3.77v-35.12zM723.4 570.63h3.76v35.12h-3.77v-35.12zM730.34 570.63h3.76v35.12h-3.76v-35.12zM758.1 570.63h3.78v35.12h-3.77v-35.12zM765.06 570.63h3.76v35.12h-3.76v-35.12zM772 570.63h3.77v35.12H772v-35.12zM778.94 570.63h3.76v35.12h-3.76v-35.12zM785.88 570.63h3.77v35.12h-3.77v-35.12zM792.82 570.63h3.77v35.12h-3.78v-35.12z" fill="#fbbf93"/><path d="M724.38 571.58h2.8v34.17h-2.8v-34.17zM731.32 571.58h2.8v34.17h-2.8v-34.17zM738.26 571.58h2.8v34.17h-2.8v-34.17zM745.2 571.58h2.8v34.17h-2.8v-34.17zM752.14 571.58h2.8v34.17h-2.8v-34.17zM759.1 571.58h2.78v34.17h-2.8v-34.17zM766.03 571.58h2.8v34.17h-2.8v-34.17zM772.98 571.58h2.8v34.17h-2.8v-34.17zM779.92 571.58h2.8v34.17h-2.8v-34.17zM786.86 571.58h2.8v34.17h-2.8v-34.17zM793.8 571.58h2.8v34.17h-2.8v-34.17z" fill="#fff"/><use xlink:href="#m" transform="matrix(1,0,0,1,720,611.75) translate(17.19135802469136 17.77777777777778)"/><use xlink:href="#u" transform="matrix(1,0,0,1,720,611.75) translate(17.19135802469136 44.44444444444444)"/><path d="M278.5 200.03l-13 .27-14.33.9-13.97 1.47-13.5 2-12.87 2.45-12.2 2.86-11.5 3.2-10.76 3.5-10.02 3.72-9.3 3.9-8.64 4.07-7.98 4.18-7.4 4.26-6.82 4.35-6.3 4.38-5.85 4.43-5.4 4.46-4.98 4.5-4.62 4.5-4.27 4.56-3.96 4.58-3.65 4.62-3.4 4.65-3.1 4.7-2.88 4.74-2.66 4.8-2.42 4.9-2.2 4.96-2 5.05-1.8 5.16-1.6 5.3-1.4 5.4-1.18 5.58-.97 5.75-.16 1.27" stroke="#3a414a" stroke-width="3" stroke-linejoin="round" fill="none"/><path d="M280 200l.05 1.47-1.56.04-.07-2.94 1.66-.04z" stroke="#3a414a" stroke-width=".05" fill="#3a414a"/><path d="M60.33 355.16l-3.65-14.55 9.25.64z" stroke="#3a414a" stroke-width="3" fill="#3a414a"/><path d="M278.5 599.97l-13-.27-14.33-.9-13.97-1.47-13.5-2-12.87-2.45-12.2-2.86-11.5-3.2-10.76-3.5-10.02-3.72-9.3-3.92-8.64-4.05-7.98-4.18-7.4-4.26-6.82-4.35-6.3-4.38-5.85-4.43-5.4-4.46-4.98-4.5-4.62-4.5-4.27-4.56-3.96-4.58-3.65-4.62-3.4-4.65-3.1-4.7-2.88-4.74-2.66-4.8-2.42-4.9-2.2-4.96-2-5.05-1.8-5.16-1.6-5.3-1.4-5.4-1.18-5.58-.97-5.75-.16-1.27" stroke="#3a414a" stroke-width="3" stroke-linejoin="round" fill="none"/><path d="M280.1 598.53L280 600l.05 1.48-1.62-.04.06-2.95z" stroke="#3a414a" stroke-width=".05" fill="#3a414a"/><path d="M60.33 444.84l5.6 13.92-9.25.63z" stroke="#3a414a" stroke-width="3" fill="#3a414a"/><path d="M18.5 400h-77.88" stroke="#3a414a" stroke-width="3" fill="none"/><path d="M20 400l.1 1.48h-1.64v-2.96h1.6z" stroke="#3a414a" stroke-width=".05" fill="#3a414a"/><path d="M-75.15 400l14.27-4.63v9.26z" stroke="#3a414a" stroke-width="3" fill="#3a414a"/><path d="M718.5 200H380.62" stroke="#3a414a" stroke-width="3" fill="none"/><path d="M720 201.47h-1.54v-2.94H720z" stroke="#3a414a" stroke-width=".05" fill="#3a414a"/><path d="M364.86 200l14.26-4.63v9.26z" stroke="#3a414a" stroke-width="3" fill="#3a414a"/><path d="M718.5 600H380.62" stroke="#3a414a" stroke-width="3" fill="none"/><path d="M720 601.48h-1.54v-2.96H720z" stroke="#3a414a" stroke-width=".05" fill="#3a414a"/><path d="M364.85 600l14.27-4.63v9.26z" stroke="#3a414a" stroke-width="3" fill="#3a414a"/><defs><path fill="#232f3e" d="M205 0l-28-72H64L36 0H1l101-248h38L239 0h-34zm-38-99l-47-123c-12 45-31 82-46 123h93" id="v"/><path fill="#232f3e" d="M266 0h-40l-56-210L115 0H75L2-248h35L96-30l15-64 43-154h32l59 218 59-218h35" id="w"/><path fill="#232f3e" d="M185-189c-5-48-123-54-124 2 14 75 158 14 163 119 3 78-121 87-175 55-17-10-28-26-33-46l33-7c5 56 141 63 141-1 0-78-155-14-162-118-5-82 145-84 179-34 5 7 8 16 11 25" id="x"/><g id="a"><use transform="matrix(0.05,0,0,0.05,0,0)" xlink:href="#v"/><use transform="matrix(0.05,0,0,0.05,11.35,0)" xlink:href="#w"/><use transform="matrix(0.05,0,0,0.05,28.299999999999997,0)" xlink:href="#x"/></g><path fill="#232f3e" d="M212-179c-10-28-35-45-73-45-59 0-87 40-87 99 0 60 29 101 89 101 43 0 62-24 78-52l27 14C228-24 195 4 139 4 59 4 22-46 18-125c-6-104 99-153 187-111 19 9 31 26 39 46" id="y"/><path fill="#232f3e" d="M24 0v-261h32V0H24" id="z"/><path fill="#232f3e" d="M100-194c62-1 85 37 85 99 1 63-27 99-86 99S16-35 15-95c0-66 28-99 85-99zM99-20c44 1 53-31 53-75 0-43-8-75-51-75s-53 32-53 75 10 74 51 75" id="A"/><path fill="#232f3e" d="M84 4C-5 8 30-112 23-190h32v120c0 31 7 50 39 49 72-2 45-101 50-169h31l1 190h-30c-1-10 1-25-2-33-11 22-28 36-60 37" id="B"/><path fill="#232f3e" d="M85-194c31 0 48 13 60 33l-1-100h32l1 261h-30c-2-10 0-23-3-31C134-8 116 4 85 4 32 4 16-35 15-94c0-66 23-100 70-100zm9 24c-40 0-46 34-46 75 0 40 6 74 45 74 42 0 51-32 51-76 0-42-9-74-50-73" id="C"/><g id="b"><use transform="matrix(0.05,0,0,0.05,0,0)" xlink:href="#y"/><use transform="matrix(0.05,0,0,0.05,12.950000000000001,0)" xlink:href="#z"/><use transform="matrix(0.05,0,0,0.05,16.900000000000002,0)" xlink:href="#A"/><use transform="matrix(0.05,0,0,0.05,26.900000000000002,0)" xlink:href="#B"/><use transform="matrix(0.05,0,0,0.05,36.900000000000006,0)" xlink:href="#C"/></g><path fill="#248814" d="M30-248c87 1 191-15 191 75 0 78-77 80-158 76V0H30v-248zm33 125c57 0 124 11 124-50 0-59-68-47-124-48v98" id="D"/><path fill="#248814" d="M84 4C-5 8 30-112 23-190h32v120c0 31 7 50 39 49 72-2 45-101 50-169h31l1 190h-30c-1-10 1-25-2-33-11 22-28 36-60 37" id="E"/><path fill="#248814" d="M115-194c53 0 69 39 70 98 0 66-23 100-70 100C84 3 66-7 56-30L54 0H23l1-261h32v101c10-23 28-34 59-34zm-8 174c40 0 45-34 45-75 0-40-5-75-45-74-42 0-51 32-51 76 0 43 10 73 51 73" id="F"/><path fill="#248814" d="M24 0v-261h32V0H24" id="G"/><path fill="#248814" d="M24-231v-30h32v30H24zM24 0v-190h32V0H24" id="H"/><path fill="#248814" d="M96-169c-40 0-48 33-48 73s9 75 48 75c24 0 41-14 43-38l32 2c-6 37-31 61-74 61-59 0-76-41-82-99-10-93 101-131 147-64 4 7 5 14 7 22l-32 3c-4-21-16-35-41-35" id="I"/><g id="c"><use transform="matrix(0.05,0,0,0.05,0,0)" xlink:href="#D"/><use transform="matrix(0.05,0,0,0.05,12,0)" xlink:href="#E"/><use transform="matrix(0.05,0,0,0.05,22,0)" xlink:href="#F"/><use transform="matrix(0.05,0,0,0.05,32,0)" xlink:href="#G"/><use transform="matrix(0.05,0,0,0.05,35.95,0)" xlink:href="#H"/><use transform="matrix(0.05,0,0,0.05,39.900000000000006,0)" xlink:href="#I"/></g><path fill="#248814" d="M185-189c-5-48-123-54-124 2 14 75 158 14 163 119 3 78-121 87-175 55-17-10-28-26-33-46l33-7c5 56 141 63 141-1 0-78-155-14-162-118-5-82 145-84 179-34 5 7 8 16 11 25" id="J"/><path fill="#248814" d="M117-194c89-4 53 116 60 194h-32v-121c0-31-8-49-39-48C34-167 62-67 57 0H25l-1-190h30c1 10-1 24 2 32 11-22 29-35 61-36" id="K"/><path fill="#248814" d="M100-194c63 0 86 42 84 106H49c0 40 14 67 53 68 26 1 43-12 49-29l28 8c-11 28-37 45-77 45C44 4 14-33 15-96c1-61 26-98 85-98zm52 81c6-60-76-77-97-28-3 7-6 17-6 28h103" id="L"/><path fill="#248814" d="M59-47c-2 24 18 29 38 22v24C64 9 27 4 27-40v-127H5v-23h24l9-43h21v43h35v23H59v120" id="M"/><g id="d"><use transform="matrix(0.05,0,0,0.05,0,0)" xlink:href="#J"/><use transform="matrix(0.05,0,0,0.05,12,0)" xlink:href="#E"/><use transform="matrix(0.05,0,0,0.05,22,0)" xlink:href="#F"/><use transform="matrix(0.05,0,0,0.05,32,0)" xlink:href="#K"/><use transform="matrix(0.05,0,0,0.05,42,0)" xlink:href="#L"/><use transform="matrix(0.05,0,0,0.05,52,0)" xlink:href="#M"/></g><path fill="#147eba" d="M30-248c87 1 191-15 191 75 0 78-77 80-158 76V0H30v-248zm33 125c57 0 124 11 124-50 0-59-68-47-124-48v98" id="N"/><path fill="#147eba" d="M114-163C36-179 61-72 57 0H25l-1-190h30c1 12-1 29 2 39 6-27 23-49 58-41v29" id="O"/><path fill="#147eba" d="M24-231v-30h32v30H24zM24 0v-190h32V0H24" id="P"/><path fill="#147eba" d="M108 0H70L1-190h34L89-25l56-165h34" id="Q"/><path fill="#147eba" d="M141-36C126-15 110 5 73 4 37 3 15-17 15-53c-1-64 63-63 125-63 3-35-9-54-41-54-24 1-41 7-42 31l-33-3c5-37 33-52 76-52 45 0 72 20 72 64v82c-1 20 7 32 28 27v20c-31 9-61-2-59-35zM48-53c0 20 12 33 32 33 41-3 63-29 60-74-43 2-92-5-92 41" id="R"/><path fill="#147eba" d="M59-47c-2 24 18 29 38 22v24C64 9 27 4 27-40v-127H5v-23h24l9-43h21v43h35v23H59v120" id="S"/><path fill="#147eba" d="M100-194c63 0 86 42 84 106H49c0 40 14 67 53 68 26 1 43-12 49-29l28 8c-11 28-37 45-77 45C44 4 14-33 15-96c1-61 26-98 85-98zm52 81c6-60-76-77-97-28-3 7-6 17-6 28h103" id="T"/><g id="e"><use transform="matrix(0.05,0,0,0.05,0,0)" xlink:href="#N"/><use transform="matrix(0.05,0,0,0.05,12,0)" xlink:href="#O"/><use transform="matrix(0.05,0,0,0.05,17.95,0)" xlink:href="#P"/><use transform="matrix(0.05,0,0,0.05,21.9,0)" xlink:href="#Q"/><use transform="matrix(0.05,0,0,0.05,30.899999999999995,0)" xlink:href="#R"/><use transform="matrix(0.05,0,0,0.05,40.9,0)" xlink:href="#S"/><use transform="matrix(0.05,0,0,0.05,45.9,0)" xlink:href="#T"/></g><path fill="#147eba" d="M185-189c-5-48-123-54-124 2 14 75 158 14 163 119 3 78-121 87-175 55-17-10-28-26-33-46l33-7c5 56 141 63 141-1 0-78-155-14-162-118-5-82 145-84 179-34 5 7 8 16 11 25" id="U"/><path fill="#147eba" d="M84 4C-5 8 30-112 23-190h32v120c0 31 7 50 39 49 72-2 45-101 50-169h31l1 190h-30c-1-10 1-25-2-33-11 22-28 36-60 37" id="V"/><path fill="#147eba" d="M115-194c53 0 69 39 70 98 0 66-23 100-70 100C84 3 66-7 56-30L54 0H23l1-261h32v101c10-23 28-34 59-34zm-8 174c40 0 45-34 45-75 0-40-5-75-45-74-42 0-51 32-51 76 0 43 10 73 51 73" id="W"/><path fill="#147eba" d="M117-194c89-4 53 116 60 194h-32v-121c0-31-8-49-39-48C34-167 62-67 57 0H25l-1-190h30c1 10-1 24 2 32 11-22 29-35 61-36" id="X"/><g id="f"><use transform="matrix(0.05,0,0,0.05,0,0)" xlink:href="#U"/><use transform="matrix(0.05,0,0,0.05,12,0)" xlink:href="#V"/><use transform="matrix(0.05,0,0,0.05,22,0)" xlink:href="#W"/><use transform="matrix(0.05,0,0,0.05,32,0)" xlink:href="#X"/><use transform="matrix(0.05,0,0,0.05,42,0)" xlink:href="#T"/><use transform="matrix(0.05,0,0,0.05,52,0)" xlink:href="#S"/></g><path fill="#d86613" d="M30 0v-248h187v28H63v79h144v27H63v87h162V0H30" id="Y"/><path fill="#d86613" d="M212-179c-10-28-35-45-73-45-59 0-87 40-87 99 0 60 29 101 89 101 43 0 62-24 78-52l27 14C228-24 195 4 139 4 59 4 22-46 18-125c-6-104 99-153 187-111 19 9 31 26 39 46" id="Z"/><path fill="#d86613" d="M185-189c-5-48-123-54-124 2 14 75 158 14 163 119 3 78-121 87-175 55-17-10-28-26-33-46l33-7c5 56 141 63 141-1 0-78-155-14-162-118-5-82 145-84 179-34 5 7 8 16 11 25" id="aa"/><g id="g"><use transform="matrix(0.05,0,0,0.05,0,0)" xlink:href="#Y"/><use transform="matrix(0.05,0,0,0.05,12,0)" xlink:href="#Z"/><use transform="matrix(0.05,0,0,0.05,24.950000000000003,0)" xlink:href="#aa"/></g><path fill="#d86613" d="M63-220v92h138v28H63V0H30v-248h175v28H63" id="ab"/><path fill="#d86613" d="M141-36C126-15 110 5 73 4 37 3 15-17 15-53c-1-64 63-63 125-63 3-35-9-54-41-54-24 1-41 7-42 31l-33-3c5-37 33-52 76-52 45 0 72 20 72 64v82c-1 20 7 32 28 27v20c-31 9-61-2-59-35zM48-53c0 20 12 33 32 33 41-3 63-29 60-74-43 2-92-5-92 41" id="ac"/><path fill="#d86613" d="M114-163C36-179 61-72 57 0H25l-1-190h30c1 12-1 29 2 39 6-27 23-49 58-41v29" id="ad"/><path fill="#d86613" d="M177-190C167-65 218 103 67 71c-23-6-38-20-44-43l32-5c15 47 100 32 89-28v-30C133-14 115 1 83 1 29 1 15-40 15-95c0-56 16-97 71-98 29-1 48 16 59 35 1-10 0-23 2-32h30zM94-22c36 0 50-32 50-73 0-42-14-75-50-75-39 0-46 34-46 75s6 73 46 73" id="ae"/><path fill="#d86613" d="M59-47c-2 24 18 29 38 22v24C64 9 27 4 27-40v-127H5v-23h24l9-43h21v43h35v23H59v120" id="af"/><path fill="#d86613" d="M100-194c63 0 86 42 84 106H49c0 40 14 67 53 68 26 1 43-12 49-29l28 8c-11 28-37 45-77 45C44 4 14-33 15-96c1-61 26-98 85-98zm52 81c6-60-76-77-97-28-3 7-6 17-6 28h103" id="ag"/><g id="h"><use transform="matrix(0.05,0,0,0.05,0,0)" xlink:href="#ab"/><use transform="matrix(0.05,0,0,0.05,10.950000000000001,0)" xlink:href="#ac"/><use transform="matrix(0.05,0,0,0.05,20.950000000000003,0)" xlink:href="#ad"/><use transform="matrix(0.05,0,0,0.05,26.900000000000002,0)" xlink:href="#ae"/><use transform="matrix(0.05,0,0,0.05,36.900000000000006,0)" xlink:href="#ac"/><use transform="matrix(0.05,0,0,0.05,46.900000000000006,0)" xlink:href="#af"/><use transform="matrix(0.05,0,0,0.05,51.900000000000006,0)" xlink:href="#ag"/></g><path fill="#d86613" d="M100-194c62-1 85 37 85 99 1 63-27 99-86 99S16-35 15-95c0-66 28-99 85-99zM99-20c44 1 53-31 53-75 0-43-8-75-51-75s-53 32-53 75 10 74 51 75" id="ah"/><path fill="#d86613" d="M117-194c89-4 53 116 60 194h-32v-121c0-31-8-49-39-48C34-167 62-67 57 0H25l-1-190h30c1 10-1 24 2 32 11-22 29-35 61-36" id="ai"/><path fill="#d86613" d="M24-231v-30h32v30H24zM24 0v-190h32V0H24" id="aj"/><g id="i"><use transform="matrix(0.05,0,0,0.05,0,0)" xlink:href="#Z"/><use transform="matrix(0.05,0,0,0.05,12.950000000000001,0)" xlink:href="#ah"/><use transform="matrix(0.05,0,0,0.05,22.950000000000003,0)" xlink:href="#ai"/><use transform="matrix(0.05,0,0,0.05,32.95,0)" xlink:href="#af"/><use transform="matrix(0.05,0,0,0.05,37.95,0)" xlink:href="#ac"/><use transform="matrix(0.05,0,0,0.05,47.95,0)" xlink:href="#aj"/><use transform="matrix(0.05,0,0,0.05,51.900000000000006,0)" xlink:href="#ai"/><use transform="matrix(0.05,0,0,0.05,61.900000000000006,0)" xlink:href="#ag"/><use transform="matrix(0.05,0,0,0.05,71.9,0)" xlink:href="#ad"/></g><path fill="#248814" d="M137 0h-34L2-248h35l83 218 83-218h36" id="ak"/><path fill="#248814" d="M114-163C36-179 61-72 57 0H25l-1-190h30c1 12-1 29 2 39 6-27 23-49 58-41v29" id="al"/><path fill="#248814" d="M141-36C126-15 110 5 73 4 37 3 15-17 15-53c-1-64 63-63 125-63 3-35-9-54-41-54-24 1-41 7-42 31l-33-3c5-37 33-52 76-52 45 0 72 20 72 64v82c-1 20 7 32 28 27v20c-31 9-61-2-59-35zM48-53c0 20 12 33 32 33 41-3 63-29 60-74-43 2-92-5-92 41" id="am"/><g id="j"><use transform="matrix(0.05,0,0,0.05,0,0)" xlink:href="#ak"/><use transform="matrix(0.05,0,0,0.05,11.65,0)" xlink:href="#H"/><use transform="matrix(0.05,0,0,0.05,15.600000000000001,0)" xlink:href="#al"/><use transform="matrix(0.05,0,0,0.05,21.55,0)" xlink:href="#M"/><use transform="matrix(0.05,0,0,0.05,26.55,0)" xlink:href="#E"/><use transform="matrix(0.05,0,0,0.05,36.55,0)" xlink:href="#am"/><use transform="matrix(0.05,0,0,0.05,46.55,0)" xlink:href="#G"/></g><path fill="#248814" d="M108 0H70L1-190h34L89-25l56-165h34" id="an"/><g id="k"><use transform="matrix(0.05,0,0,0.05,0,0)" xlink:href="#D"/><use transform="matrix(0.05,0,0,0.05,12,0)" xlink:href="#al"/><use transform="matrix(0.05,0,0,0.05,17.95,0)" xlink:href="#H"/><use transform="matrix(0.05,0,0,0.05,21.9,0)" xlink:href="#an"/><use transform="matrix(0.05,0,0,0.05,30.899999999999995,0)" xlink:href="#am"/><use transform="matrix(0.05,0,0,0.05,40.9,0)" xlink:href="#M"/><use transform="matrix(0.05,0,0,0.05,45.9,0)" xlink:href="#L"/></g><path fill="#248814" d="M212-179c-10-28-35-45-73-45-59 0-87 40-87 99 0 60 29 101 89 101 43 0 62-24 78-52l27 14C228-24 195 4 139 4 59 4 22-46 18-125c-6-104 99-153 187-111 19 9 31 26 39 46" id="ao"/><path fill="#248814" d="M100-194c62-1 85 37 85 99 1 63-27 99-86 99S16-35 15-95c0-66 28-99 85-99zM99-20c44 1 53-31 53-75 0-43-8-75-51-75s-53 32-53 75 10 74 51 75" id="ap"/><path fill="#248814" d="M85-194c31 0 48 13 60 33l-1-100h32l1 261h-30c-2-10 0-23-3-31C134-8 116 4 85 4 32 4 16-35 15-94c0-66 23-100 70-100zm9 24c-40 0-46 34-46 75 0 40 6 74 45 74 42 0 51-32 51-76 0-42-9-74-50-73" id="aq"/><g id="l"><use transform="matrix(0.05,0,0,0.05,0,0)" xlink:href="#ao"/><use transform="matrix(0.05,0,0,0.05,12.950000000000001,0)" xlink:href="#G"/><use transform="matrix(0.05,0,0,0.05,16.900000000000002,0)" xlink:href="#ap"/><use transform="matrix(0.05,0,0,0.05,26.900000000000002,0)" xlink:href="#E"/><use transform="matrix(0.05,0,0,0.05,36.900000000000006,0)" xlink:href="#aq"/></g><path fill="#3a414a" d="M30 0v-248h187v28H63v79h144v27H63v87h162V0H30" id="ar"/><path fill="#3a414a" d="M212-179c-10-28-35-45-73-45-59 0-87 40-87 99 0 60 29 101 89 101 43 0 62-24 78-52l27 14C228-24 195 4 139 4 59 4 22-46 18-125c-6-104 99-153 187-111 19 9 31 26 39 46" id="as"/><path fill="#3a414a" d="M185-189c-5-48-123-54-124 2 14 75 158 14 163 119 3 78-121 87-175 55-17-10-28-26-33-46l33-7c5 56 141 63 141-1 0-78-155-14-162-118-5-82 145-84 179-34 5 7 8 16 11 25" id="at"/><g id="m"><use transform="matrix(0.06172839506172839,0,0,0.06172839506172839,0,0)" xlink:href="#ar"/><use transform="matrix(0.06172839506172839,0,0,0.06172839506172839,14.814814814814813,0)" xlink:href="#as"/><use transform="matrix(0.06172839506172839,0,0,0.06172839506172839,30.80246913580247,0)" xlink:href="#at"/></g><path fill="#3a414a" d="M59-47c-2 24 18 29 38 22v24C64 9 27 4 27-40v-127H5v-23h24l9-43h21v43h35v23H59v120" id="au"/><path fill="#3a414a" d="M141-36C126-15 110 5 73 4 37 3 15-17 15-53c-1-64 63-63 125-63 3-35-9-54-41-54-24 1-41 7-42 31l-33-3c5-37 33-52 76-52 45 0 72 20 72 64v82c-1 20 7 32 28 27v20c-31 9-61-2-59-35zM48-53c0 20 12 33 32 33 41-3 63-29 60-74-43 2-92-5-92 41" id="av"/><path fill="#3a414a" d="M135-143c-3-34-86-38-87 0 15 53 115 12 119 90S17 21 10-45l28-5c4 36 97 45 98 0-10-56-113-15-118-90-4-57 82-63 122-42 12 7 21 19 24 35" id="aw"/><path fill="#3a414a" d="M143 0L79-87 56-68V0H24v-261h32v163l83-92h37l-77 82L181 0h-38" id="ax"/><g id="n"><use transform="matrix(0.06172839506172839,0,0,0.06172839506172839,0,0)" xlink:href="#au"/><use transform="matrix(0.06172839506172839,0,0,0.06172839506172839,6.172839506172839,0)" xlink:href="#av"/><use transform="matrix(0.06172839506172839,0,0,0.06172839506172839,18.51851851851852,0)" xlink:href="#aw"/><use transform="matrix(0.06172839506172839,0,0,0.06172839506172839,29.62962962962963,0)" xlink:href="#ax"/></g><path fill="#3a414a" d="M33 0v-248h34V0H33" id="ay"/><path fill="#3a414a" d="M117-194c89-4 53 116 60 194h-32v-121c0-31-8-49-39-48C34-167 62-67 57 0H25l-1-190h30c1 10-1 24 2 32 11-22 29-35 61-36" id="az"/><path fill="#3a414a" d="M100-194c63 0 86 42 84 106H49c0 40 14 67 53 68 26 1 43-12 49-29l28 8c-11 28-37 45-77 45C44 4 14-33 15-96c1-61 26-98 85-98zm52 81c6-60-76-77-97-28-3 7-6 17-6 28h103" id="aA"/><path fill="#3a414a" d="M114-163C36-179 61-72 57 0H25l-1-190h30c1 12-1 29 2 39 6-27 23-49 58-41v29" id="aB"/><g id="o"><use transform="matrix(0.06172839506172839,0,0,0.06172839506172839,0,0)" xlink:href="#ay"/><use transform="matrix(0.06172839506172839,0,0,0.06172839506172839,6.172839506172839,0)" xlink:href="#az"/><use transform="matrix(0.06172839506172839,0,0,0.06172839506172839,18.51851851851852,0)" xlink:href="#au"/><use transform="matrix(0.06172839506172839,0,0,0.06172839506172839,24.691358024691358,0)" xlink:href="#aA"/><use transform="matrix(0.06172839506172839,0,0,0.06172839506172839,37.03703703703704,0)" xlink:href="#aB"/><use transform="matrix(0.06172839506172839,0,0,0.06172839506172839,44.382716049382715,0)" xlink:href="#az"/><use transform="matrix(0.06172839506172839,0,0,0.06172839506172839,56.72839506172839,0)" xlink:href="#aA"/><use transform="matrix(0.06172839506172839,0,0,0.06172839506172839,69.07407407407408,0)" xlink:href="#au"/></g><path fill="#3a414a" d="M177-190C167-65 218 103 67 71c-23-6-38-20-44-43l32-5c15 47 100 32 89-28v-30C133-14 115 1 83 1 29 1 15-40 15-95c0-56 16-97 71-98 29-1 48 16 59 35 1-10 0-23 2-32h30zM94-22c36 0 50-32 50-73 0-42-14-75-50-75-39 0-46 34-46 75s6 73 46 73" id="aC"/><path fill="#3a414a" d="M206 0h-36l-40-164L89 0H53L-1-190h32L70-26l43-164h34l41 164 42-164h31" id="aD"/><path fill="#3a414a" d="M179-190L93 31C79 59 56 82 12 73V49c39 6 53-20 64-50L1-190h34L92-34l54-156h33" id="aE"/><g id="p"><use transform="matrix(0.06172839506172839,0,0,0.06172839506172839,0,0)" xlink:href="#aC"/><use transform="matrix(0.06172839506172839,0,0,0.06172839506172839,12.345679012345679,0)" xlink:href="#av"/><use transform="matrix(0.06172839506172839,0,0,0.06172839506172839,24.691358024691358,0)" xlink:href="#au"/><use transform="matrix(0.06172839506172839,0,0,0.06172839506172839,30.864197530864196,0)" xlink:href="#aA"/><use transform="matrix(0.06172839506172839,0,0,0.06172839506172839,43.20987654320987,0)" xlink:href="#aD"/><use transform="matrix(0.06172839506172839,0,0,0.06172839506172839,59.197530864197525,0)" xlink:href="#av"/><use transform="matrix(0.06172839506172839,0,0,0.06172839506172839,71.5432098765432,0)" xlink:href="#aE"/></g><path fill="#3a414a" d="M190 0L58-211 59 0H30v-248h39L202-35l-2-213h31V0h-41" id="aF"/><path fill="#3a414a" d="M100-194c62-1 85 37 85 99 1 63-27 99-86 99S16-35 15-95c0-66 28-99 85-99zM99-20c44 1 53-31 53-75 0-43-8-75-51-75s-53 32-53 75 10 74 51 75" id="aG"/><g id="q"><use transform="matrix(0.06172839506172839,0,0,0.06172839506172839,0,0)" xlink:href="#aF"/><use transform="matrix(0.06172839506172839,0,0,0.06172839506172839,15.987654320987653,0)" xlink:href="#aA"/><use transform="matrix(0.06172839506172839,0,0,0.06172839506172839,28.333333333333332,0)" xlink:href="#au"/><use transform="matrix(0.06172839506172839,0,0,0.06172839506172839,34.50617283950617,0)" xlink:href="#aD"/><use transform="matrix(0.06172839506172839,0,0,0.06172839506172839,50.49382716049382,0)" xlink:href="#aG"/><use transform="matrix(0.06172839506172839,0,0,0.06172839506172839,62.8395061728395,0)" xlink:href="#aB"/><use transform="matrix(0.06172839506172839,0,0,0.06172839506172839,70.18518518518518,0)" xlink:href="#ax"/></g><path fill="#3a414a" d="M30 0v-248h33v221h125V0H30" id="aH"/><path fill="#3a414a" d="M85-194c31 0 48 13 60 33l-1-100h32l1 261h-30c-2-10 0-23-3-31C134-8 116 4 85 4 32 4 16-35 15-94c0-66 23-100 70-100zm9 24c-40 0-46 34-46 75 0 40 6 74 45 74 42 0 51-32 51-76 0-42-9-74-50-73" id="aI"/><g id="r"><use transform="matrix(0.06172839506172839,0,0,0.06172839506172839,0,0)" xlink:href="#aH"/><use transform="matrix(0.06172839506172839,0,0,0.06172839506172839,12.345679012345679,0)" xlink:href="#aG"/><use transform="matrix(0.06172839506172839,0,0,0.06172839506172839,24.691358024691358,0)" xlink:href="#av"/><use transform="matrix(0.06172839506172839,0,0,0.06172839506172839,37.03703703703704,0)" xlink:href="#aI"/></g><path fill="#3a414a" d="M160-131c35 5 61 23 61 61C221 17 115-2 30 0v-248c76 3 177-17 177 60 0 33-19 50-47 57zm-97-11c50-1 110 9 110-42 0-47-63-36-110-37v79zm0 115c55-2 124 14 124-45 0-56-70-42-124-44v89" id="aJ"/><path fill="#3a414a" d="M24 0v-261h32V0H24" id="aK"/><path fill="#3a414a" d="M96-169c-40 0-48 33-48 73s9 75 48 75c24 0 41-14 43-38l32 2c-6 37-31 61-74 61-59 0-76-41-82-99-10-93 101-131 147-64 4 7 5 14 7 22l-32 3c-4-21-16-35-41-35" id="aL"/><g id="s"><use transform="matrix(0.06172839506172839,0,0,0.06172839506172839,0,0)" xlink:href="#aJ"/><use transform="matrix(0.06172839506172839,0,0,0.06172839506172839,14.814814814814813,0)" xlink:href="#av"/><use transform="matrix(0.06172839506172839,0,0,0.06172839506172839,27.160493827160494,0)" xlink:href="#aK"/><use transform="matrix(0.06172839506172839,0,0,0.06172839506172839,32.03703703703704,0)" xlink:href="#av"/><use transform="matrix(0.06172839506172839,0,0,0.06172839506172839,44.382716049382715,0)" xlink:href="#az"/><use transform="matrix(0.06172839506172839,0,0,0.06172839506172839,56.72839506172839,0)" xlink:href="#aL"/><use transform="matrix(0.06172839506172839,0,0,0.06172839506172839,67.8395061728395,0)" xlink:href="#aA"/><use transform="matrix(0.06172839506172839,0,0,0.06172839506172839,80.18518518518519,0)" xlink:href="#aB"/></g><path fill="#3a414a" d="M205 0l-28-72H64L36 0H1l101-248h38L239 0h-34zm-38-99l-47-123c-12 45-31 82-46 123h93" id="aM"/><path fill="#3a414a" d="M127-220V0H93v-220H8v-28h204v28h-85" id="aN"/><g id="t"><use transform="matrix(0.06172839506172839,0,0,0.06172839506172839,0,0)" xlink:href="#aF"/><use transform="matrix(0.06172839506172839,0,0,0.06172839506172839,15.987654320987653,0)" xlink:href="#aM"/><use transform="matrix(0.06172839506172839,0,0,0.06172839506172839,29.1358024691358,0)" xlink:href="#aN"/></g><g id="u"><use transform="matrix(0.06172839506172839,0,0,0.06172839506172839,0,0)" xlink:href="#aN"/><use transform="matrix(0.06172839506172839,0,0,0.06172839506172839,11.049382716049381,0)" xlink:href="#av"/><use transform="matrix(0.06172839506172839,0,0,0.06172839506172839,23.39506172839506,0)" xlink:href="#aw"/><use transform="matrix(0.06172839506172839,0,0,0.06172839506172839,34.50617283950617,0)" xlink:href="#ax"/></g></defs></g></svg>